<svg width="102" height="38" viewBox="0 0 102 38" fill="none" xmlns="http://www.w3.org/2000/svg">
<g clip-path="url(#clip0_138_20762)">
<path d="M45.8666 4.54843C44.2502 -0.581207 38.9023 0.0218549 38.9023 0.0218549C40.3909 2.49718 41.4936 5.19345 42.1708 8.01421L45.8666 4.54843Z" fill="#008ED8"/>
<path d="M42.3197 13.3255C40.7104 8.14501 35.3555 8.74807 35.3555 8.74807C36.8492 11.2198 37.95 13.9174 38.6168 16.7404L42.3197 13.3255Z" fill="#008ED8"/>
<path d="M100.482 0.0429688H78.4779C74.5614 0.0429688 73.9062 4.71486 73.9062 4.71486H96.0167C99.8549 4.69306 100.482 0.0429688 100.482 0.0429688Z" fill="#008ED8"/>
<path d="M77.5539 14.4233C78.3883 13.4633 79.3665 12.6442 80.4521 11.9965C81.7709 11.1316 83.2997 10.6586 84.8671 10.6306C87.9362 10.6306 90.3573 12.6359 91.7815 14.4233H97.5779C101.138 14.4233 101.993 9.74414 101.993 9.74414H73.787C70.4259 9.74414 69.3008 14.4233 69.3008 14.4233H77.5539Z" fill="#008ED8"/>
<path d="M41.4729 17.3008L31.9023 28.0396L36.004 30.7134C42.0568 22.8082 41.4729 17.3008 41.4729 17.3008Z" fill="#008ED8"/>
<path d="M95.7834 18.2086C93.7041 17.482 92.3653 17.2931 91.5108 16.0943C90.5281 14.7138 86.8751 9.30802 81.0003 12.97C76.5996 15.7164 78.152 17.5474 73.2243 19.8797C68.2966 22.212 68.3109 25.2419 70.0341 26.9639C71.7574 28.6858 77.7033 29.7103 81.6911 28.5623C85.6788 27.4143 87.3095 26.012 87.2311 23.3019C87.1671 20.7879 83.0013 18.5501 80.6443 22.2629C80.506 22.4936 80.4536 22.7673 80.4967 23.0341C80.5398 23.3009 80.6756 23.543 80.8793 23.7161C81.0003 22.3065 81.8121 22.7061 81.8406 22.7206C82.6097 23.1639 83.3146 23.934 82.4245 25.1111C80.8579 27.1746 76.4928 26.8258 75.7166 25.874C74.9404 24.9222 74.4847 22.8805 77.3615 20.9696C80.2384 19.0587 83.5425 16.661 88.2138 18.7899C91.8099 20.4319 93.405 22.2556 93.6186 23.8759C93.8322 25.4962 92.6573 26.9929 90.7702 27.9302C86.932 29.7975 83.5852 30.1899 77.7888 31.0908C71.9924 31.9918 65.4767 35.7264 64.5938 37.9424C64.5938 37.9424 69.7279 32.7765 81.7338 32.9363C93.7396 33.0962 99.7853 28.7294 100.191 24.2828C100.483 20.817 97.9481 18.9352 95.7834 18.2086Z" fill="#008ED8"/>
<path d="M19.2891 0.450625L16.9178 13.7978C16.2057 18.1573 15.4936 21.8483 14.9738 23.8682C14.1454 26.8836 13.1419 29.846 11.9688 32.7397C13.9375 31.6293 15.6534 30.1059 17.0035 28.27C18.3536 26.4341 19.3072 24.3272 19.8018 22.0881H26.823L26.4598 24.1661C26.0895 26.3458 25.6053 29.0124 22.8994 29.0124H21.055L20.4427 31.9623C20.4427 31.9623 22.6715 32.064 24.466 31.9623C25.818 31.9567 27.1302 31.4943 28.1973 30.6472C28.8564 30.0374 29.3849 29.2954 29.7497 28.4674C30.1514 27.5397 30.4338 26.5628 30.59 25.5611L34.8767 0.261719L19.2891 0.450625ZM27.5564 17.685H20.5495C20.8485 16.2319 21.1191 14.7787 21.3399 13.3256H28.297L27.5564 17.685ZM29.0447 8.96611H22.0947L22.8068 4.67204H29.7639L29.0447 8.96611Z" fill="#008ED8"/>
<path d="M65.8305 18.8183L67.8956 6.77162H60.6536C61.4939 5.48558 62.0778 4.51197 62.4908 3.86531H66.7206C69.9677 3.86531 70.4947 0.0507812 70.4947 0.0507812H47.0597L44.7526 13.5215C43.5349 20.7873 41.4912 28.3074 38.3438 31.1338C39.2481 30.3273 45.8207 30.7414 48.9468 14.1319L50.7057 3.86531H58.1114C57.6427 4.86036 57.1246 5.83038 56.5591 6.77162H54.1023C53.4523 6.86127 52.8507 7.17168 52.3947 7.6528C51.9387 8.13393 51.6547 8.75772 51.5887 9.42364C51.1543 11.9231 49.5663 21.1942 49.5663 21.1942H55.5265L54.6008 26.5854C54.5088 26.9863 54.2861 27.3434 53.9691 27.5982C53.6521 27.853 53.2597 27.9903 52.8562 27.9877C51.9376 28.0386 50.5063 27.9877 50.5063 27.9877C51.0216 27.2585 51.3874 26.4306 51.5815 25.5537C51.9403 24.4798 52.0476 23.3352 51.8949 22.2114C49.8831 24.5424 47.6021 26.6161 45.1015 28.3873L47.7718 30.9449C48.7686 30.1996 49.625 29.2765 50.2998 28.2202C50.297 29.5624 50.1489 30.9001 49.8583 32.2091C49.8583 32.2091 53.6181 32.2091 54.729 32.042C55.7413 31.9357 56.6832 31.4642 57.3851 30.7124C58.0946 29.8468 58.5489 28.7937 58.6953 27.6753L59.8062 21.2232H63.2456C65.4958 21.1942 65.8305 18.8183 65.8305 18.8183ZM61.8713 17.7212H54.2519L54.6293 15.5414H62.2487L61.8713 17.7212ZM62.7899 12.3953H55.1634L55.5337 10.2156H63.1601L62.7899 12.3953Z" fill="#008ED8"/>
<path d="M60.9414 22.5684C61.3473 25.3003 61.6535 28.1775 62.1235 31.607L65.926 29.529C65.1784 23.3313 60.9414 22.5684 60.9414 22.5684Z" fill="#008ED8"/>
<path d="M16.5334 0.871094H7.3474C4.83372 0.871094 4.37799 3.51584 4.37799 3.51584L-0.015625 29.1059H9.64034C11.4206 29.1059 12.0258 27.086 12.0258 27.086L16.5334 0.871094ZM8.18766 24.9789H5.04734L6.40743 16.9866H9.54776L8.18766 24.9789ZM10.2527 12.925H7.10529L8.46539 4.93266H11.6128L10.2527 12.925Z" fill="#008ED8"/>
</g>
<defs>
<clipPath id="clip0_138_20762">
<rect width="102" height="38" fill="white"/>
</clipPath>
</defs>
</svg>
